HIERARCHY
ROOT Hips
{
  OFFSET -32.5998 29.0326 120.673
  CHANNELS 6 Xposition Yposition Zposition Zrotation Xrotation Yrotation
  JOINT LeftUpLeg
  {
    OFFSET 8.64259 1.95398 -2.38835
    CHANNELS 3 Zrotation Xrotation Yrotation
    JOINT LeftLeg
    {
      OFFSET 43.7702 0 0
      CHANNELS 3 Zrotation Xrotation Yrotation
      JOINT LeftFoot
      {
        OFFSET 40.6238 0 0
        CHANNELS 3 Zrotation Xrotation Yrotation
        JOINT LeftToeBase
        {
          OFFSET 12.7242 0 0
          CHANNELS 3 Zrotation Xrotation Yrotation
          End Site
          {
            OFFSET 0 0 0
          }
        }
      }
    }
  }
  JOINT RightUpLeg
  {
    OFFSET -8.2249 1.95398 -2.59336
    CHANNELS 3 Zrotation Xrotation Yrotation
    JOINT RightLeg
    {
      OFFSET 43.5653 0 0
      CHANNELS 3 Zrotation Xrotation Yrotation
      JOINT RightFoot
      {
        OFFSET 40.6238 0 0
        CHANNELS 3 Zrotation Xrotation Yrotation
        JOINT RightToeBase
        {
          OFFSET 12.7242 0 0
          CHANNELS 3 Zrotation Xrotation Yrotation
          End Site
          {
            OFFSET 0 0 0
          }
        }
      }
    }
  }
  JOINT Spine
  {
    OFFSET 0.165834 0.87714 6.61349
    CHANNELS 3 Zrotation Xrotation Yrotation
    JOINT Spine1
    {
      OFFSET 7.38963 1.71661e-005 0
      CHANNELS 3 Zrotation Xrotation Yrotation
      JOINT Spine2
      {
        OFFSET 11.9445 1.14441e-005 0
        CHANNELS 3 Zrotation Xrotation Yrotation
        JOINT Spine3
        {
          OFFSET 14.7254 4.19617e-005 0
          CHANNELS 3 Zrotation Xrotation Yrotation
          JOINT Spine4
          {
            OFFSET 10.9679 0 0
            CHANNELS 3 Zrotation Xrotation Yrotation
            JOINT RightShoulder
            {
              OFFSET 2.46616 -1.6653 3.69651
              CHANNELS 3 Zrotation Xrotation Yrotation
              JOINT RightArm
              {
                OFFSET 13.0012 0 0
                CHANNELS 3 Zrotation Xrotation Yrotation
                JOINT RightForeArm
                {
                  OFFSET 28.7848 1.62311e-005 0
                  CHANNELS 3 Zrotation Xrotation Yrotation
                  JOINT RightHand
                  {
                    OFFSET 26.5688 1.62095e-005 0
                    CHANNELS 3 Zrotation Xrotation Yrotation
                    End Site
                    {
                      OFFSET 0 0 0
                    }
                  }
                }
              }
            }
            JOINT LeftShoulder
            {
              OFFSET 2.38034 -1.29275 -3.7523
              CHANNELS 3 Zrotation Xrotation Yrotation
              JOINT LeftArm
              {
                OFFSET 16.3182 6.07031e-005 0
                CHANNELS 3 Zrotation Xrotation Yrotation
                JOINT LeftForeArm
                {
                  OFFSET 27.0901 0 0
                  CHANNELS 3 Zrotation Xrotation Yrotation
                  JOINT LeftHand
                  {
                    OFFSET 24.5451 1.51738e-005 0
                    CHANNELS 3 Zrotation Xrotation Yrotation
                    End Site
                    {
                      OFFSET 0 0 0
                    }
                  }
                }
              }
            }
            JOINT Neck
            {
              OFFSET 5.0226 -0.0266342 0
              CHANNELS 3 Zrotation Xrotation Yrotation
              JOINT Head
              {
                OFFSET 6.69364 2.86102e-005 0
                CHANNELS 3 Zrotation Xrotation Yrotation
                End Site
                {
                  OFFSET 0 0 0
                }
              }
            }
          }
        }
      }
    }
  }
}
MOTION
Frames:	7
Frame Time:	0.0416667
-36.1394 90.098 39.8269 26.6479 19.0333 121.749 -31.1849 85.42 -54.3741 -41.3913 12.0384 -9.74014 70.2659 5.94172 0.527559 2.71037 -16.843 6.57616 16.7784 87.0066 -109.282 -45.2826 -14.554 6.08397 69.6382 -5.70709 -2.29339 18.0812 3.21676 4.82354 0.951463 12.3594 -89.8151 2.15027 1.97166 0.401395 -9.51923 1.98741 0.314199 -32.0639 1.75983 0.975554 -12.0513 1.75984 0.975566 56.4087 -15.3613 -178.922 -79.7111 -14.8536 18.1816 2.02845 30.4633 -23.4301 -6.86677 0.472953 -14.2413 -86.3721 -11.3619 73.8473 -7.87701 -31.8179 -93.8688 17.8927 -3.47731 -4.10158 1.57387 -0.153687 -6.203 29.9614 -2.13541 1.11043 -6.95854 -2.40626 -2.26906 
-36.1914 89.7748 40.0616 26.5496 19.2805 121.953 -30.844 84.9006 -54.5213 -41.8904 12.5226 -10.0734 70.5539 6.18918 0.672546 2.15208 -17.1147 6.49395 18.4677 86.48 -111.324 -46.0034 -14.37 6.37676 69.2966 -5.57467 -3.12829 19.0449 1.89913 7.49828 0.914104 12.3573 -89.7789 2.1539 1.91101 0.470696 -9.5157 1.92987 0.386089 -32.0594 1.68118 1.0234 -12.0467 1.68118 1.0234 75.2632 -2.9505 -164.031 -55.6574 0.0330557 18.5651 -3.48784 31.2687 -17.9977 -6.46536 0.400863 -13.4406 -85.9573 -10.5497 74.5561 -7.55292 -31.3073 -93.9525 17.9694 -3.49106 -2.50341 1.83458 -0.178298 -6.74656 30.5206 -2.59141 -0.324769 -7.49428 -2.30643 -0.827061 
-36.2029 89.7813 40.4047 26.6975 19.6585 122.154 -32.9971 85.114 -52.271 -41.4492 12.7862 -10.1487 68.8162 5.05095 0.738409 5.7392 -14.2087 5.36117 21.0039 86.615 -113.912 -45.9907 -14.4553 6.51007 69.6879 -5.75659 -2.63663 18.2596 2.83511 5.69915 0.907945 12.3115 -89.7989 2.24602 1.89128 0.428861 -9.4236 1.9083 0.34517 -31.9673 1.67492 0.977556 -11.9547 1.67492 0.977572 88.9608 5.35365 -140.054 -32.1809 20.0475 -2.80191 -7.60483 37.5423 -10.4255 -6.24493 0.50168 -15.9265 -86.249 -11.1441 74.0661 -7.56427 -30.3671 -93.0642 17.7474 -5.70907 -1.55247 1.04429 -0.173882 -7.65825 30.3708 -2.45198 0.50241 -7.60509 -2.4823 -1.4975 
-36.3896 89.992 40.7915 26.78 19.3206 122.155 -28.911 85.4508 -56.0603 -40.4319 12.889 -10.1539 68.782 5.02286 0.868242 5.9841 -15.8997 7.91909 20.0477 86.9181 -112.308 -44.8737 -14.0628 6.35778 69.5335 -5.60675 -2.19021 17.5973 3.38883 4.91172 0.925344 12.1173 -89.7348 2.63319 1.95207 0.545655 -9.03635 1.97419 0.459159 -31.58 1.6978 1.10723 -11.5674 1.69781 1.10724 89.277 -8.23668 -121.74 -23.9867 27.3582 -31.2905 -8.20507 41.6289 -6.18299 -3.9092 0.36836 -18.8672 -86.2906 -11.0975 73.9376 -7.89001 -28.0416 -89.7171 16.682 -10.4134 -1.5485 0.307021 -0.215309 -9.59229 30.7809 -2.30849 0.878234 -8.54012 -2.47039 -1.87404 
-36.0542 90.7182 41.1537 28.6184 21.4721 122.189 -84.5303 87.7557 -0.990149 -38.1506 13.3858 -9.72495 68.303 4.72813 0.564173 4.9378 -16.2661 7.60992 122.048 88.6907 145.66 -43.3478 -13.6208 6.10669 68.7086 -5.10892 -3.30726 18.4603 2.97309 5.06344 0.881948 12.0498 -89.8099 2.77009 1.8363 0.394346 -8.89961 1.85188 0.313115 -31.4429 1.63287 0.928129 -11.4303 1.63286 0.928123 91.1323 -8.99386 -115.414 -9.43523 24.8684 -41.2581 -9.28652 38.9484 -5.60878 -5.05822 0.481855 -18.1766 -86.7121 -12.814 73.6585 -8.17946 -22.4828 -84.8629 15.529 -14.2659 -0.311543 1.78265 -0.263023 -9.12218 30.8235 -2.13713 1.2844 -9.82947 -2.42661 -2.33516 
-35.5858 91.6527 41.4291 30.8166 22.29 122.01 -159.339 86.4163 74.0434 -35.7356 12.4316 -8.80969 66.4625 3.37871 0.886974 7.8853 -12.8192 5.22129 168.957 85.1351 100.091 -40.2991 -11.6296 5.46772 67.7393 -4.27427 -2.37575 19.8001 2.22743 5.62527 0.906099 11.7705 -89.7802 3.32851 1.89749 0.440537 -8.34111 1.91503 0.356555 -30.8848 1.67735 0.990565 -10.8722 1.67734 0.99056 90.5809 -10.4644 -115.833 -3.60898 16.1035 -39.9286 -7.97969 26.8598 -7.36147 -9.11259 0.560751 -12.8206 -86.8986 -14.2025 73.8331 -5.05111 -13.6006 -77.304 12.9209 -12.8544 -0.39174 -0.402493 -0.149964 -7.85118 30.1007 -1.92461 0.929729 -10.796 -2.05974 -2.25973 
-34.7249 92.8972 41.6954 33.6647 24.4745 121.537 -172.3 80.9276 87.1182 -32.12 13.1475 -8.50519 66.2433 3.12138 -0.125175 6.72568 -15.7536 8.40774 175.078 79.5297 94.7107 -36.9226 -10.9299 4.94109 67.0286 -3.75376 -2.19174 18.8473 3.18213 3.9947 0.880147 11.5138 -89.8415 3.84328 1.82241 0.30619 -7.82639 1.83412 0.225651 -30.37 1.6461 0.839873 -10.3574 1.64611 0.839871 90.7127 -11.5129 -114.712 2.88085 5.22506 -38.764 -7.29423 11.5754 -11.1281 -10.3749 0.562993 -12.0793 -87.8728 -17.6348 72.9928 1.03994 -3.19362 -69.4031 9.18642 -7.05848 -3.45733 -3.17567 -0.0682929 -7.30992 28.5612 -1.71672 0.0184333 -11.8134 -1.55224 -1.3762 
